<svg xmlns="http://www.w3.org/2000/svg" width="49" height="49">
    <path fill="#606060" fill-rule="evenodd" d="M27.621 24.968L48.447 4.141c.734-.733.734-1.922 0-2.655-.732-.734-1.924-.734-2.658 0L24.966 22.313 4.139 1.486c-.73-.734-1.919-.734-2.655 0-.731.733-.731 1.922 0 2.655L22.31 24.968 1.484 45.795c-.731.734-.731 1.922 0 2.656.367.366.846.549 1.331.549.478 0 .959-.183 1.324-.549l20.827-20.827 20.823 20.827c.367.366.849.549 1.329.549s.962-.183 1.329-.549c.734-.736.734-1.922 0-2.656L27.621 24.968z"/>
</svg>
